<svg width="52" height="74" viewBox="0 0 52 74" fill="none" xmlns="http://www.w3.org/2000/svg">
<path d="M1 18.5V13.374C1 11.177 1.66996 9.03228 2.9205 7.22594C4.5705 4.84262 7.10923 3.22255 9.96583 2.73003L17.5436 1.42352C19.1782 1.14169 20.8339 1 22.4927 1H29.5H41.5592C42.5142 1 43.4637 1.1449 44.3752 1.42974L44.7959 1.56121C48.4869 2.71465 51 6.13297 51 10V13V26V31V36.4379C51 39.7421 50.028 43.0021 48.233 45.7762C46.46 48.5163 45.5 51.7363 45.5 55V57.7118C45.5 59.9007 45.3328 62.0865 45 64.25L44.5594 67.1138C44.5199 67.3709 44.5 67.6306 44.5 67.8907C44.5 70.7125 42.2125 73 39.3907 73H34.5H25H10C7.25201 73 4.74999 71.4166 3.57361 68.9332L2.17978 65.9907C1.40296 64.3507 1 62.5587 1 60.744V55V41.5V31V26V18.5Z" stroke="black"/>
</svg>
