<svg width="225" height="565" viewBox="0 0 225 565" fill="none" xmlns="http://www.w3.org/2000/svg">
<path d="M83.5 38L84.5 45L87 49.5L90.5 51.5L92.5 62V72L89.5 78L81 85.5L69 92.5L62.75 96.75L56.5 101L50.75 106.25L45 111.5L40 117.5L36.5 127L36 133.25L35.5 139.5L36 148.5L36.5 155.5V164.5L36 172.5L35.3824 178.5L34.5 186L33.5 191.5L32.25 198.75L31 203L30 207.375L28 213L27 219.5V228L27.5 236.5L28 245V251.25V257.5L27.5 262.25L27 267L26.75 274.25L24.5 280.5L20 285L12.5 292.5L8 298.5L4.5 304.5L1 311.5L2 314L4.5 315.75L8 314L12.5 308L17.5 303V305.5V316V321.5V327V335L20 338.5H27V344H31L35.5 338.5L37.5 336.5L42 332.5L43.5 325L44.5 317.5V308V296V288V275.5L46.5 268L48.5 260.5L52.5 248.75L56.5 237L57.75 230L59 223V212L61.5 201L64 188L69 194.5V207V218V228L64 241.5V253.5L59 272L56.5 288L55.5 295L55 303V309V316L55.5 328.5L56.5 336.5L59 350L64 367.5L69 383L73 396.5V411.5V420.5V431.5V442.5V447.5V452.5V459L74 468L77 477L79.5 482.5L82 490.5L86 501L88.5 514L89.5 522.5L90.5 531V545L82 551.5L73 558.5V560.5L74 562.5L78.5 563L90 564H100.5H109L114 561.375V558L113 554L112 548L110.5 534.5L109.5 524.25V515.5L109.25 507L109.5 496.5V484.5L112 472.5L113 461.5L112.5 454.75L112 448L109.25 440.25L107.5 431.5L105.5 424V417L107.5 406.5V399.5V392.5L108.5 373.5V360.5V350L110.75 342L113 334L114 345.5L114.5 355V366V381V391L116 400L118.5 411.5L119.5 424L118.5 434.5L117.5 445V456V466V478L118.5 490.5V501V515.5L116 531L113 542L115 554L115.5 561L118.5 563H127H134.5L138 561.375L138.5 558L137.5 551.5L134.5 539L136 531.25L137.5 523.5L138.5 515.5L141 504.5L142.5 498.5L145.25 491.25L146.875 485.875L148.5 480.5L151 470.5L152.5 460.5V452.5V443.5V434.5V424V412.5V404.5V389V379L154.5 366L156.5 356.25L158.5 346.5L160.5 332.5L162.5 312.5V296V281.5L158.5 267L156.5 253.5V241.5L152.5 223V212V199V188L156.5 177.5L162.5 194.5L165 206.25V218V230L167.5 241.5L171.5 253.5L178 267.5V281.5L178.5 288L178 296L178.25 304L178.5 312L182 322L183 329L184 331L184.5 334L189 335.5L191 338.5L196 344L199.5 345H204L205 342.5L205.5 340L208 338.5V331V324V317.5V308V303L213.5 308L219 312.5H224V308L219 303L213.5 296L208 288L199.5 281.5L196 272V260.5V247V237V223V212L191 199V188L187.5 174.5V161V151V139.5V131.5L184.5 120L178 110L167.5 104L156.5 97.5L148.5 92.5L142 86.5L135 78L131.5 72V65V58L135 51.5H138L140.5 46L142 39L140.5 33L136 31.5L135 29V23.5V16L131.5 10L127 4L122 1H107.5L98 4L91.5 10.5L89.5 16L87.5 22.5V30L87 32L84.5 34L83.5 38Z" stroke="black"/>
</svg>
