<svg width="27" height="30" viewBox="0 0 27 30" fill="none" xmlns="http://www.w3.org/2000/svg">
<path d="M9.5 1H5.23992C4.11662 1 3.02982 1.39894 2.1733 2.12569C1.11188 3.02628 0.5 4.34791 0.5 5.73992V9.27273V16.2727V17.7027C0.5 22.237 3.21097 26.3319 7.38514 28.1028C8.78077 28.6949 10.2813 29 11.7973 29H12.162C14.3523 29 16.5076 28.4504 18.4304 27.4016L18.517 27.3544C21.1011 25.9449 23.1527 23.7281 24.3583 21.0429L25.3387 18.8592C26.1042 17.1542 26.5 15.3065 26.5 13.4375C26.5 10.7265 25.6676 8.08086 24.1153 5.85825L22.8393 4.03131C22.6135 3.70797 22.3611 3.40403 22.0847 3.12265C20.7512 1.76487 18.9279 1 17.0248 1H15.5H9.5Z" stroke="black"/>
</svg>
