<svg width="42" height="135" viewBox="0 0 42 135" fill="none" xmlns="http://www.w3.org/2000/svg">
<path d="M22.3414 3.83838L20.9889 2.99305C18.4627 1.41419 15.3636 1.04546 12.5375 1.98749C11.5192 2.32694 10.5622 2.82835 9.70345 3.47241L9.30258 3.77306C7.78569 4.91074 6.53438 6.36472 5.63543 8.03419L4.65369 9.85743C3.8868 11.2816 3.27586 12.7845 2.83148 14.3398L2.1922 16.5773C1.06954 20.5066 0.5 24.5732 0.5 28.6597V32.5V42V53L1.5 64.5L3.5 76.5L5 88.5L7 100L7.58716 104.306C8.19389 108.755 9.28687 113.125 10.8465 117.336L12.7192 122.392C13.2377 123.792 13.9278 125.122 14.7736 126.353L16.1668 128.379C17.9813 131.018 20.7673 132.831 23.9153 133.422C25.9384 133.801 28.0247 133.658 29.9774 133.008L32.9813 132.006C34.958 131.347 36.7233 130.173 38.0954 128.605C39.0242 127.544 39.7549 126.32 40.2502 125C40.7452 123.679 41 122.278 41 120.868V114.5V107V83V70V65.5V53C41 48.3541 40.3806 43.7289 39.1582 39.2467L39.0702 38.924C38.3577 36.3116 37.4525 33.7556 36.3619 31.2771L32.5 22.5L29.7964 14.3893C29.2672 12.8017 28.5571 11.2803 27.68 9.85505L26.6431 8.17007C25.5624 6.41383 24.0901 4.93131 22.3414 3.83838Z" stroke="black"/>
</svg>
